<svg aria-hidden="true" style="position: absolute; width: 0; height: 0; overflow: hidden;" version="1.1" xmlns="http://www.w3.org/2000/svg" xmlns:xlink="http://www.w3.org/1999/xlink">
<defs>
<symbol id="icon-logo_tell" viewBox="0 0 33 32">
<path fill="#fff" style="fill: var(--color1, #fff)" d="M23.744 31.705c-1.299-0.010-2.554-0.177-3.754-0.483l0.108 0.023c-4.12-0.994-8.362-3.515-11.943-7.099s-6.106-7.827-7.099-11.942c-1.047-4.331-0.3-8.034 2.099-10.433l0.686-0.686c0.6-0.598 1.428-0.968 2.342-0.968s1.742 0.37 2.342 0.968l3.937 3.937c0.599 0.6 0.969 1.428 0.969 2.342s-0.37 1.742-0.969 2.342l-2.325 2.325c1.115 1.957 2.631 3.915 4.423 5.707s3.752 3.31 5.707 4.425l2.325-2.327c0.599-0.6 1.428-0.971 2.342-0.971s1.743 0.371 2.342 0.971l3.936 3.937c0.599 0.599 0.969 1.427 0.969 2.341s-0.37 1.742-0.969 2.341l-0.686 0.686c-1.691 1.695-4.033 2.564-6.783 2.564zM6.181 2.471c-0.001 0-0.003 0-0.005 0-0.262 0-0.499 0.107-0.67 0.28l-0.686 0.686c-1.797 1.797-2.322 4.714-1.478 8.21 0.894 3.703 3.194 7.55 6.475 10.831 3.282 3.282 7.13 5.579 10.833 6.475 3.496 0.844 6.412 0.32 8.209-1.477l0.685-0.686c0.173-0.173 0.279-0.412 0.279-0.675s-0.107-0.502-0.279-0.675v0l-3.935-3.935c-0.173-0.173-0.412-0.279-0.675-0.279s-0.502 0.107-0.675 0.279l-2.948 2.947c-0.213 0.214-0.508 0.346-0.834 0.346-0.198 0-0.384-0.049-0.548-0.135l0.006 0.003c-2.416-1.249-4.851-3.068-7.044-5.26s-4.007-4.626-5.259-7.043c-0.083-0.157-0.132-0.344-0.132-0.542 0-0.325 0.131-0.619 0.344-0.833l2.949-2.947c0.173-0.173 0.28-0.412 0.28-0.676s-0.107-0.503-0.28-0.676l-3.937-3.937c-0.172-0.173-0.41-0.28-0.673-0.28-0.001 0-0.002 0-0.003 0h0z"></path>
<path fill="#fff" style="fill: var(--color1, #fff)" d="M25.002 17.536c-0.651 0-1.179-0.528-1.179-1.179v0c-0.005-4.305-3.493-7.793-7.797-7.799h-0.001c-0.631-0.026-1.133-0.543-1.133-1.178s0.502-1.153 1.131-1.178l0.002-0c5.6 0 10.156 4.558 10.156 10.157-0.001 0.651-0.528 1.178-1.179 1.178v0z"></path>
<path fill="#fff" style="fill: var(--color1, #fff)" d="M29.983 17.536c-0.651-0.001-1.178-0.528-1.178-1.179v0c0-7.046-5.735-12.78-12.78-12.78-0.631-0.026-1.133-0.543-1.133-1.179s0.502-1.153 1.131-1.178l0.002-0c8.347 0 15.137 6.791 15.137 15.138-0.001 0.651-0.528 1.178-1.178 1.178h-0z"></path>
</symbol>
<symbol id="icon-viva_pizza_logo" viewBox="0 0 186 32">
<path fill="#fdd844" style="fill: var(--color2, #fdd844)" d="M23.42 0l0.173 0.193c-1.479 1.547-2.611 3.19-3.569 4.93-0.872 1.74-2.003 4.544-3.308 8.218l-4.789 14.018 2.003 1.933h-7.575l2.177-2.030-6.007-19.142-2.525-2.417h8.183l-2.35 2.61 5.484 17.209 0.61-1.74-4.875-15.276 1.654-1.836 0.26 0.386-1.479 1.644 4.612 14.502 3.484-10.345c1.045-3.094 1.567-5.219 1.567-6.477 0-0.017 0-0.038 0-0.058 0-1.21-0.464-2.311-1.223-3.136l0.003 0.003 0.349-0.096c3.134-0.58 5.484-1.644 7.139-3.094zM24.289 1.161l0.175 0.386c-2.090 1.837-4.266 5.994-6.53 12.471l-4.701 13.535 2.612 3.384h-8.533l-0.348-0.483h7.923l-2.090-2.707 4.701-13.729 0.872-2.611c0.783-2.223 1.74-4.35 2.785-6.186 1.132-1.934 2.177-3.288 3.134-4.061z"></path>
<path fill="#fdd844" style="fill: var(--color2, #fdd844)" d="M22.287 5.801h7.837l-2.176 2.515v19.142l2.089 1.934h-7.661l2.263-2.127v-19.143l-2.35-2.321zM30.906 6.866l-1.654 1.836v18.659l2.786 3.48h-8.619l-0.436-0.483h8.011l-2.264-2.804v-19.047l1.828-2.030 0.348 0.386zM54.674 0l0.174 0.193c-1.48 1.547-2.612 3.19-3.57 4.93s-2.002 4.544-3.308 8.218l-4.789 14.018 2.003 1.933h-7.574l2.177-2.030-6.007-19.142-2.525-2.417h8.183l-2.35 2.61 5.484 17.209 0.61-1.74-4.876-15.276 1.655-1.836 0.26 0.386-1.48 1.644 4.614 14.502 3.482-10.345c1.045-3.094 1.567-5.219 1.567-6.477 0-0.018 0-0.039 0-0.060 0-1.209-0.463-2.31-1.222-3.135l0.003 0.003 0.349-0.096c3.134-0.58 5.572-1.644 7.139-3.094zM55.631 1.161l0.174 0.386c-2.089 1.837-4.266 5.994-6.529 12.471l-4.701 13.535 2.611 3.384h-8.532l-0.349-0.483h7.923l-2.089-2.707 4.701-13.729 0.872-2.611c0.783-2.223 1.74-4.35 2.785-6.186 1.132-1.934 2.176-3.288 3.134-4.061zM68.865 5.801l-1.742 2.127 2.698 8.024 0.697-0.386-2.439-7.251 1.741-2.225 0.436 0.193-1.655 2.127 2.351 6.863c0.174-0.096 0.174-0.192 0.262-0.192l0.522-0.483c0.349-0.29 0.523-0.484 0.609-0.58 0.272 1.418 0.725 2.681 1.342 3.844l-0.036-0.074h-0.696c-1.045 0-1.828 0.193-2.264 0.579l2.961 8.991 2.438 2.127h-8.358l2.263-2.127-1.828-5.318c-1.218 1.354-2.176 2.611-2.785 3.868l-0.349-0.096c0.609-1.161 1.655-2.514 2.873-4.061l0.174-0.194-0.349-0.772c-1.306 1.257-2.439 2.611-3.222 4.254l-0.26-0.58c-0.609-0.967-1.306-2.126-2.177-3.48l-0.173-0.193c-0.872 2.126-1.306 3.769-1.306 5.123 0 0.774 0.088 1.45 0.349 1.933 0.26 0.58 0.783 1.451 1.741 2.708 0.087 0.097 0.173 0.29 0.348 0.483h-8.879l-0.349-0.483h8.445l-0.26-0.386c-0.697-0.968-1.219-1.741-1.394-2.322-0.26-0.579-0.348-1.16-0.348-1.933 0-1.257 0.435-3.093 1.393-5.607l-0.696-0.87c-0.174 0.386-0.349 0.967-0.523 1.739l-0.522 1.837c-0.262 0.967-0.436 1.837-0.436 2.514s0.088 1.257 0.349 1.74c0.174 0.483 0.609 1.064 1.306 1.837 0.087 0.097 0.173 0.193 0.26 0.386h-8.27c1.567-0.87 2.786-2.126 3.743-3.674 0.958-1.546 1.828-3.866 2.699-7.057l0.088-0.29c-0.61-0.579-1.394-0.87-2.526-0.967 0.61-0.967 1.045-2.030 1.394-3.094l0.26 0.29 0.783 0.772c0.262 0.291 0.523 0.582 0.872 0.872l0.26-0.774-0.174-0.193c-0.522-0.58-1.045-0.967-1.393-1.258l-0.174-0.096 0.262-0.386c0.609 0.386 1.131 0.967 1.654 1.45l2.263-6.865-1.74-2.127h7.488v-0.29zM64.076 9.572l-2.612 7.734c0.872 0.967 1.567 1.933 2.177 2.803l0.783 1.161 0.174 0.193 0.173-0.193 0.262-0.29c0-0.097 0.087-0.097 0.174-0.193-0.783-1.36-1.678-2.534-2.702-3.58l0.003 0.003 2.090-6.187-0.523-1.45zM64.86 11.699l-1.828 5.319 0.174 0.192 0.696 0.871c0.349 0.483 0.783 1.159 1.394 2.030l0.174 0.29c0.435-0.678 1.044-1.354 1.654-1.934l-2.264-6.767zM73.827 14.889c0.26 1.064 0.871 2.611 1.827 4.544-0.26 0-0.348-0.097-0.435-0.097l-1.306-0.096c-0.369-0.062-0.794-0.098-1.228-0.098-0.027 0-0.054 0-0.082 0l0.004-0h-0.349l2.786 8.121 3.657 3.577h-9.577l-0.348-0.483h8.792l-2.959-2.901-2.961-8.605c0.349-0.096 0.783-0.193 1.306-0.193 0.609 0 1.218 0.097 2.002 0.193l-0.173-0.386c-0.697-1.45-1.219-2.707-1.394-3.866l0.436 0.289zM88.627 5.801h7.401c3.134 0 5.397 0.483 6.703 1.451 1.654 1.257 2.525 2.9 2.525 5.027 0 1.353-0.349 2.417-0.958 3.383s-1.567 1.644-2.699 2.127c-1.131 0.386-3.047 0.676-5.572 0.676h-2.002v8.894l2.003 2.030h-7.661l2.263-2.126v-7.347h-0.262c-0.783 0-1.567 0.192-2.262 0.579l-0.175-0.29c0.696-0.483 1.393-0.676 2.003-0.676h0.783v-0.872c-0.262 0-0.436-0.095-0.522-0.095-1.219 0-2.090 0.289-2.786 0.967l-0.174-0.29c0.696-1.354 1.741-2.030 3.222-2.030h0.26v-8.991l-2.090-2.417zM104.472 7.831c0.696 0.387 1.218 0.968 1.654 1.934 0.435 0.967 0.609 1.933 0.609 3.19 0 2.611-0.958 4.544-2.786 5.704-1.393 0.87-3.829 1.354-7.138 1.354h-1.394v7.541l2.613 3.383h-8.271l-0.435-0.483h7.748l-2.090-2.707v-8.314c0.958 0.097 2.003 0.097 3.047 0.097 2.873 0 4.963-0.58 6.356-1.644s2.089-2.803 2.089-5.123c0-0.967-0.173-1.74-0.435-2.514-0.436-0.772-0.871-1.547-1.567-2.417zM94.025 7.735v9.184h0.783v-8.217h1.828c1.393 0 2.439 0.097 2.961 0.386 0.609 0.29 1.044 0.871 1.479 1.74-0.435-0.579-0.957-1.064-1.567-1.353-0.609-0.29-1.479-0.386-2.612-0.386h-1.74v7.734c2.176 0 3.743-0.387 4.788-1.065 1.045-0.676 1.567-1.836 1.567-3.383 0-1.74-0.435-2.9-1.393-3.674-0.871-0.772-2.35-1.159-4.353-1.159-0.435 0.096-1.045 0.096-1.741 0.193zM107.693 5.801h7.836l-2.176 2.515v19.142l2.089 1.934h-7.661l2.263-2.127v-19.143l-2.35-2.321zM116.225 6.866l-1.654 1.836v18.659l2.786 3.48h-8.619l-0.436-0.483h8.010l-2.263-2.804v-19.047l1.828-2.030 0.348 0.386zM136.075 5.801l-13.233 21.948h1.044l12.972-21.56 0.262 0.483-12.711 21.172h3.656c0.871 0 1.741-0.193 2.612-0.579 0.785-0.386 1.394-0.87 1.828-1.45 0.523-0.774 0.958-1.644 1.306-2.514 0.958 2.707 1.916 4.737 2.959 6.187h-18.805l12.276-20.398h-2.438c-2.003 0-3.395 0.193-4.179 0.772-0.783 0.483-1.306 1.45-1.654 2.997l-0.349-0.386c0.174-1.064 0.696-1.933 1.393-2.611 0.436-0.483 1.045-0.772 1.655-0.967 0.609-0.193 1.653-0.193 3.134-0.193 0.871 0 1.741 0 2.525 0.097h0.26l0.61-1.064c-0.783-0.097-1.567-0.097-2.264-0.097-2.263 0-3.83 0.097-4.701 0.29s-1.567 0.676-2.263 1.45c-0.523 0.58-0.871 1.354-1.219 2.321l-0.174-0.29c-0.522-1.45-1.305-3.094-2.35-5.124l-0.087-0.193h17.934v-0.29zM138.425 29.197l-0.871 1.644h-18.892l-0.348-0.483h18.979l0.609-1.161c-1.306-1.74-2.263-3.674-2.961-5.801l0.523 0.194c0.522 1.837 1.48 3.673 2.785 5.414l0.174 0.193zM157.752 5.801l-13.233 21.948h1.045l12.971-21.56 0.262 0.483-12.711 21.172h3.657c0.871 0 1.74-0.193 2.611-0.579 0.746-0.32 1.363-0.816 1.82-1.438l0.008-0.012c0.523-0.774 0.958-1.644 1.306-2.514 0.958 2.707 1.916 4.737 2.959 6.187h-18.805l12.276-20.398h-2.438c-2.003 0-3.395 0.193-4.179 0.772-0.783 0.58-1.306 1.45-1.654 2.997l-0.349-0.386c0.174-1.064 0.696-1.933 1.394-2.611 0.435-0.483 1.044-0.772 1.654-0.967 0.609-0.193 1.654-0.193 3.134-0.193 0.871 0 1.741 0 2.525 0.097h0.26l0.61-1.064c-0.783-0.097-1.567-0.097-2.263-0.097-2.264 0-3.831 0.097-4.702 0.29s-1.567 0.676-2.263 1.45c-0.523 0.58-0.871 1.354-1.219 2.321l-0.174-0.29c-0.522-1.45-1.305-3.094-2.35-5.124l-0.087-0.193h17.934v-0.29zM160.103 29.197l-0.871 1.644h-18.891l-0.349-0.483h18.979l0.609-1.161c-1.306-1.74-2.263-3.674-2.961-5.801l0.523 0.194c0.522 1.837 1.48 3.673 2.786 5.414l0.173 0.193zM176.644 5.801l-1.741 2.127 2.699 8.024 0.696-0.386-2.438-7.251 1.741-2.225 0.436 0.193-1.654 2.127 2.35 6.863c0.174-0.096 0.174-0.192 0.262-0.192l0.522-0.483c0.349-0.29 0.522-0.484 0.609-0.58 0.272 1.418 0.725 2.681 1.342 3.844l-0.036-0.074h-0.696c-1.045 0-1.828 0.193-2.264 0.579l2.961 8.991 2.438 2.127h-8.358l2.263-2.127-1.828-5.318c-1.218 1.354-2.176 2.611-2.786 3.868l-0.348-0.096c0.609-1.161 1.654-2.514 2.872-4.061l0.174-0.194-0.348-0.772c-1.306 1.257-2.438 2.611-3.222 4.254l-0.26-0.58c-0.609-0.967-1.306-2.126-2.177-3.48l-0.173-0.193c-0.871 2.126-1.306 3.769-1.306 5.123 0 0.774 0.087 1.45 0.349 1.933 0.26 0.58 0.783 1.451 1.741 2.708 0.086 0.097 0.174 0.29 0.348 0.483h-8.879l-0.349-0.483h8.445l-0.262-0.386c-0.696-0.968-1.218-1.741-1.393-2.322-0.262-0.579-0.348-1.16-0.348-1.933 0-1.257 0.435-3.093 1.393-5.607l-0.696-0.87c-0.174 0.386-0.349 0.967-0.523 1.739l-0.522 1.837c-0.262 0.967-0.435 1.837-0.435 2.514s0.086 1.257 0.348 1.74c0.174 0.483 0.609 1.064 1.306 1.837 0.086 0.097 0.173 0.193 0.26 0.386h-8.27c1.567-0.87 2.786-2.126 3.744-3.674 0.957-1.546 1.828-3.866 2.698-7.057l0.087-0.29c-0.609-0.579-1.393-0.87-2.525-0.967 0.609-0.967 1.045-2.030 1.394-3.094l0.26 0.29 0.783 0.772c0.262 0.291 0.523 0.582 0.871 0.872l0.262-0.774-0.174-0.193c-0.522-0.58-1.044-0.967-1.393-1.258l-0.174-0.096 0.262-0.386c0.609 0.386 1.132 0.967 1.654 1.45l2.263-6.865-1.741-2.127h7.487v-0.29zM171.857 9.572l-2.612 7.734c0.871 0.967 1.567 1.933 2.176 2.803l0.783 1.161s0.088 0.096 0.174 0.193l0.174-0.193 0.262-0.29c0-0.097 0.087-0.097 0.174-0.193-0.783-1.36-1.678-2.534-2.702-3.58l0.003 0.003 2.089-6.187-0.522-1.45zM172.64 11.699l-1.828 5.319 0.174 0.192 0.696 0.871c0.349 0.483 0.783 1.159 1.393 2.030l0.174 0.29c0.436-0.678 1.045-1.354 1.654-1.934l-2.263-6.767zM181.608 14.889c0.26 1.064 0.871 2.611 1.828 4.544-0.262 0-0.349-0.097-0.436-0.097l-1.305-0.096c-0.369-0.062-0.795-0.098-1.229-0.098-0.027 0-0.055 0-0.082 0l0.004-0h-0.349l2.786 8.121 3.657 3.577h-9.577l-0.349-0.483h8.793l-2.959-2.901-2.961-8.605c0.349-0.096 0.783-0.193 1.306-0.193 0.609 0 1.218 0.097 2.002 0.193l-0.173-0.386c-0.697-1.45-1.219-2.707-1.394-3.866l0.436 0.289z"></path>
</symbol>
</defs>
</svg>
