<svg aria-hidden="true" style="position: absolute; width: 0; height: 0; overflow: hidden;" version="1.1" xmlns="http://www.w3.org/2000/svg" xmlns:xlink="http://www.w3.org/1999/xlink">
<defs>

<symbol id="icon-logo_tell" viewBox="0 0 33 32">
<path fill="#fff" style="fill: var(--color1, #fff)" d="M23.744 31.705c-1.299-0.010-2.554-0.177-3.754-0.483l0.108 0.023c-4.12-0.994-8.362-3.515-11.943-7.099s-6.106-7.827-7.099-11.942c-1.047-4.331-0.3-8.034 2.099-10.433l0.686-0.686c0.6-0.598 1.428-0.968 2.342-0.968s1.742 0.37 2.342 0.968l3.937 3.937c0.599 0.6 0.969 1.428 0.969 2.342s-0.37 1.742-0.969 2.342l-2.325 2.325c1.115 1.957 2.631 3.915 4.423 5.707s3.752 3.31 5.707 4.425l2.325-2.327c0.599-0.6 1.428-0.971 2.342-0.971s1.743 0.371 2.342 0.971l3.936 3.937c0.599 0.599 0.969 1.427 0.969 2.341s-0.37 1.742-0.969 2.341l-0.686 0.686c-1.691 1.695-4.033 2.564-6.783 2.564zM6.181 2.471c-0.001 0-0.003 0-0.005 0-0.262 0-0.499 0.107-0.67 0.28l-0.686 0.686c-1.797 1.797-2.322 4.714-1.478 8.21 0.894 3.703 3.194 7.55 6.475 10.831 3.282 3.282 7.13 5.579 10.833 6.475 3.496 0.844 6.412 0.32 8.209-1.477l0.685-0.686c0.173-0.173 0.279-0.412 0.279-0.675s-0.107-0.502-0.279-0.675v0l-3.935-3.935c-0.173-0.173-0.412-0.279-0.675-0.279s-0.502 0.107-0.675 0.279l-2.948 2.947c-0.213 0.214-0.508 0.346-0.834 0.346-0.198 0-0.384-0.049-0.548-0.135l0.006 0.003c-2.416-1.249-4.851-3.068-7.044-5.26s-4.007-4.626-5.259-7.043c-0.083-0.157-0.132-0.344-0.132-0.542 0-0.325 0.131-0.619 0.344-0.833l2.949-2.947c0.173-0.173 0.28-0.412 0.28-0.676s-0.107-0.503-0.28-0.676l-3.937-3.937c-0.172-0.173-0.41-0.28-0.673-0.28-0.001 0-0.002 0-0.003 0h0z"></path>
<path fill="#fff" style="fill: var(--color1, #fff)" d="M25.002 17.536c-0.651 0-1.179-0.528-1.179-1.179v0c-0.005-4.305-3.493-7.793-7.797-7.799h-0.001c-0.631-0.026-1.133-0.543-1.133-1.178s0.502-1.153 1.131-1.178l0.002-0c5.6 0 10.156 4.558 10.156 10.157-0.001 0.651-0.528 1.178-1.179 1.178v0z"></path>
<path fill="#fff" style="fill: var(--color1, #fff)" d="M29.983 17.536c-0.651-0.001-1.178-0.528-1.178-1.179v0c0-7.046-5.735-12.78-12.78-12.78-0.631-0.026-1.133-0.543-1.133-1.179s0.502-1.153 1.131-1.178l0.002-0c8.347 0 15.137 6.791 15.137 15.138-0.001 0.651-0.528 1.178-1.178 1.178h-0z"></path>
</symbol>
<symbol id="icon-viva_pizza_logo" viewBox="0 0 186 32">
<path fill="#fdd844" style="fill: var(--color2, #fdd844)" d="M23.42 0l0.173 0.193c-1.479 1.547-2.611 3.19-3.569 4.93-0.872 1.74-2.003 4.544-3.308 8.218l-4.789 14.018 2.003 1.933h-7.575l2.177-2.030-6.007-19.142-2.525-2.417h8.183l-2.35 2.61 5.484 17.209 0.61-1.74-4.875-15.276 1.654-1.836 0.26 0.386-1.479 1.644 4.612 14.502 3.484-10.345c1.045-3.094 1.567-5.219 1.567-6.477 0-0.017 0-0.038 0-0.058 0-1.21-0.464-2.311-1.223-3.136l0.003 0.003 0.349-0.096c3.134-0.58 5.484-1.644 7.139-3.094zM24.289 1.161l0.175 0.386c-2.090 1.837-4.266 5.994-6.53 12.471l-4.701 13.535 2.612 3.384h-8.533l-0.348-0.483h7.923l-2.090-2.707 4.701-13.729 0.872-2.611c0.783-2.223 1.74-4.35 2.785-6.186 1.132-1.934 2.177-3.288 3.134-4.061z"></path>
<path fill="#fdd844" style="fill: var(--color2, #fdd844)" d="M22.287 5.801h7.837l-2.176 2.515v19.142l2.089 1.934h-7.661l2.263-2.127v-19.143l-2.35-2.321zM30.906 6.866l-1.654 1.836v18.659l2.786 3.48h-8.619l-0.436-0.483h8.011l-2.264-2.804v-19.047l1.828-2.030 0.348 0.386zM54.674 0l0.174 0.193c-1.48 1.547-2.612 3.19-3.57 4.93s-2.002 4.544-3.308 8.218l-4.789 14.018 2.003 1.933h-7.574l2.177-2.030-6.007-19.142-2.525-2.417h8.183l-2.35 2.61 5.484 17.209 0.61-1.74-4.876-15.276 1.655-1.836 0.26 0.386-1.48 1.644 4.614 14.502 3.482-10.345c1.045-3.094 1.567-5.219 1.567-6.477 0-0.018 0-0.039 0-0.060 0-1.209-0.463-2.31-1.222-3.135l0.003 0.003 0.349-0.096c3.134-0.58 5.572-1.644 7.139-3.094zM55.631 1.161l0.174 0.386c-2.089 1.837-4.266 5.994-6.529 12.471l-4.701 13.535 2.611 3.384h-8.532l-0.349-0.483h7.923l-2.089-2.707 4.701-13.729 0.872-2.611c0.783-2.223 1.74-4.35 2.785-6.186 1.132-1.934 2.176-3.288 3.134-4.061zM68.865 5.801l-1.742 2.127 2.698 8.024 0.697-0.386-2.439-7.251 1.741-2.225 0.436 0.193-1.655 2.127 2.351 6.863c0.174-0.096 0.174-0.192 0.262-0.192l0.522-0.483c0.349-0.29 0.523-0.484 0.609-0.58 0.272 1.418 0.725 2.681 1.342 3.844l-0.036-0.074h-0.696c-1.045 0-1.828 0.193-2.264 0.579l2.961 8.991 2.438 2.127h-8.358l2.263-2.127-1.828-5.318c-1.218 1.354-2.176 2.611-2.785 3.868l-0.349-0.096c0.609-1.161 1.655-2.514 2.873-4.061l0.174-0.194-0.349-0.772c-1.306 1.257-2.439 2.611-3.222 4.254l-0.26-0.58c-0.609-0.967-1.306-2.126-2.177-3.48l-0.173-0.193c-0.872 2.126-1.306 3.769-1.306 5.123 0 0.774 0.088 1.45 0.349 1.933 0.26 0.58 0.783 1.451 1.741 2.708 0.087 0.097 0.173 0.29 0.348 0.483h-8.879l-0.349-0.483h8.445l-0.26-0.386c-0.697-0.968-1.219-1.741-1.394-2.322-0.26-0.579-0.348-1.16-0.348-1.933 0-1.257 0.435-3.093 1.393-5.607l-0.696-0.87c-0.174 0.386-0.349 0.967-0.523 1.739l-0.522 1.837c-0.262 0.967-0.436 1.837-0.436 2.514s0.088 1.257 0.349 1.74c0.174 0.483 0.609 1.064 1.306 1.837 0.087 0.097 0.173 0.193 0.26 0.386h-8.27c1.567-0.87 2.786-2.126 3.743-3.674 0.958-1.546 1.828-3.866 2.699-7.057l0.088-0.29c-0.61-0.579-1.394-0.87-2.526-0.967 0.61-0.967 1.045-2.030 1.394-3.094l0.26 0.29 0.783 0.772c0.262 0.291 0.523 0.582 0.872 0.872l0.26-0.774-0.174-0.193c-0.522-0.58-1.045-0.967-1.393-1.258l-0.174-0.096 0.262-0.386c0.609 0.386 1.131 0.967 1.654 1.45l2.263-6.865-1.74-2.127h7.488v-0.29zM64.076 9.572l-2.612 7.734c0.872 0.967 1.567 1.933 2.177 2.803l0.783 1.161 0.174 0.193 0.173-0.193 0.262-0.29c0-0.097 0.087-0.097 0.174-0.193-0.783-1.36-1.678-2.534-2.702-3.58l0.003 0.003 2.090-6.187-0.523-1.45zM64.86 11.699l-1.828 5.319 0.174 0.192 0.696 0.871c0.349 0.483 0.783 1.159 1.394 2.030l0.174 0.29c0.435-0.678 1.044-1.354 1.654-1.934l-2.264-6.767zM73.827 14.889c0.26 1.064 0.871 2.611 1.827 4.544-0.26 0-0.348-0.097-0.435-0.097l-1.306-0.096c-0.369-0.062-0.794-0.098-1.228-0.098-0.027 0-0.054 0-0.082 0l0.004-0h-0.349l2.786 8.121 3.657 3.577h-9.577l-0.348-0.483h8.792l-2.959-2.901-2.961-8.605c0.349-0.096 0.783-0.193 1.306-0.193 0.609 0 1.218 0.097 2.002 0.193l-0.173-0.386c-0.697-1.45-1.219-2.707-1.394-3.866l0.436 0.289zM88.627 5.801h7.401c3.134 0 5.397 0.483 6.703 1.451 1.654 1.257 2.525 2.9 2.525 5.027 0 1.353-0.349 2.417-0.958 3.383s-1.567 1.644-2.699 2.127c-1.131 0.386-3.047 0.676-5.572 0.676h-2.002v8.894l2.003 2.030h-7.661l2.263-2.126v-7.347h-0.262c-0.783 0-1.567 0.192-2.262 0.579l-0.175-0.29c0.696-0.483 1.393-0.676 2.003-0.676h0.783v-0.872c-0.262 0-0.436-0.095-0.522-0.095-1.219 0-2.090 0.289-2.786 0.967l-0.174-0.29c0.696-1.354 1.741-2.030 3.222-2.030h0.26v-8.991l-2.090-2.417zM104.472 7.831c0.696 0.387 1.218 0.968 1.654 1.934 0.435 0.967 0.609 1.933 0.609 3.19 0 2.611-0.958 4.544-2.786 5.704-1.393 0.87-3.829 1.354-7.138 1.354h-1.394v7.541l2.613 3.383h-8.271l-0.435-0.483h7.748l-2.090-2.707v-8.314c0.958 0.097 2.003 0.097 3.047 0.097 2.873 0 4.963-0.58 6.356-1.644s2.089-2.803 2.089-5.123c0-0.967-0.173-1.74-0.435-2.514-0.436-0.772-0.871-1.547-1.567-2.417zM94.025 7.735v9.184h0.783v-8.217h1.828c1.393 0 2.439 0.097 2.961 0.386 0.609 0.29 1.044 0.871 1.479 1.74-0.435-0.579-0.957-1.064-1.567-1.353-0.609-0.29-1.479-0.386-2.612-0.386h-1.74v7.734c2.176 0 3.743-0.387 4.788-1.065 1.045-0.676 1.567-1.836 1.567-3.383 0-1.74-0.435-2.9-1.393-3.674-0.871-0.772-2.35-1.159-4.353-1.159-0.435 0.096-1.045 0.096-1.741 0.193zM107.693 5.801h7.836l-2.176 2.515v19.142l2.089 1.934h-7.661l2.263-2.127v-19.143l-2.35-2.321zM116.225 6.866l-1.654 1.836v18.659l2.786 3.48h-8.619l-0.436-0.483h8.010l-2.263-2.804v-19.047l1.828-2.030 0.348 0.386zM136.075 5.801l-13.233 21.948h1.044l12.972-21.56 0.262 0.483-12.711 21.172h3.656c0.871 0 1.741-0.193 2.612-0.579 0.785-0.386 1.394-0.87 1.828-1.45 0.523-0.774 0.958-1.644 1.306-2.514 0.958 2.707 1.916 4.737 2.959 6.187h-18.805l12.276-20.398h-2.438c-2.003 0-3.395 0.193-4.179 0.772-0.783 0.483-1.306 1.45-1.654 2.997l-0.349-0.386c0.174-1.064 0.696-1.933 1.393-2.611 0.436-0.483 1.045-0.772 1.655-0.967 0.609-0.193 1.653-0.193 3.134-0.193 0.871 0 1.741 0 2.525 0.097h0.26l0.61-1.064c-0.783-0.097-1.567-0.097-2.264-0.097-2.263 0-3.83 0.097-4.701 0.29s-1.567 0.676-2.263 1.45c-0.523 0.58-0.871 1.354-1.219 2.321l-0.174-0.29c-0.522-1.45-1.305-3.094-2.35-5.124l-0.087-0.193h17.934v-0.29zM138.425 29.197l-0.871 1.644h-18.892l-0.348-0.483h18.979l0.609-1.161c-1.306-1.74-2.263-3.674-2.961-5.801l0.523 0.194c0.522 1.837 1.48 3.673 2.785 5.414l0.174 0.193zM157.752 5.801l-13.233 21.948h1.045l12.971-21.56 0.262 0.483-12.711 21.172h3.657c0.871 0 1.74-0.193 2.611-0.579 0.746-0.32 1.363-0.816 1.82-1.438l0.008-0.012c0.523-0.774 0.958-1.644 1.306-2.514 0.958 2.707 1.916 4.737 2.959 6.187h-18.805l12.276-20.398h-2.438c-2.003 0-3.395 0.193-4.179 0.772-0.783 0.58-1.306 1.45-1.654 2.997l-0.349-0.386c0.174-1.064 0.696-1.933 1.394-2.611 0.435-0.483 1.044-0.772 1.654-0.967 0.609-0.193 1.654-0.193 3.134-0.193 0.871 0 1.741 0 2.525 0.097h0.26l0.61-1.064c-0.783-0.097-1.567-0.097-2.263-0.097-2.264 0-3.831 0.097-4.702 0.29s-1.567 0.676-2.263 1.45c-0.523 0.58-0.871 1.354-1.219 2.321l-0.174-0.29c-0.522-1.45-1.305-3.094-2.35-5.124l-0.087-0.193h17.934v-0.29zM160.103 29.197l-0.871 1.644h-18.891l-0.349-0.483h18.979l0.609-1.161c-1.306-1.74-2.263-3.674-2.961-5.801l0.523 0.194c0.522 1.837 1.48 3.673 2.786 5.414l0.173 0.193zM176.644 5.801l-1.741 2.127 2.699 8.024 0.696-0.386-2.438-7.251 1.741-2.225 0.436 0.193-1.654 2.127 2.35 6.863c0.174-0.096 0.174-0.192 0.262-0.192l0.522-0.483c0.349-0.29 0.522-0.484 0.609-0.58 0.272 1.418 0.725 2.681 1.342 3.844l-0.036-0.074h-0.696c-1.045 0-1.828 0.193-2.264 0.579l2.961 8.991 2.438 2.127h-8.358l2.263-2.127-1.828-5.318c-1.218 1.354-2.176 2.611-2.786 3.868l-0.348-0.096c0.609-1.161 1.654-2.514 2.872-4.061l0.174-0.194-0.348-0.772c-1.306 1.257-2.438 2.611-3.222 4.254l-0.26-0.58c-0.609-0.967-1.306-2.126-2.177-3.48l-0.173-0.193c-0.871 2.126-1.306 3.769-1.306 5.123 0 0.774 0.087 1.45 0.349 1.933 0.26 0.58 0.783 1.451 1.741 2.708 0.086 0.097 0.174 0.29 0.348 0.483h-8.879l-0.349-0.483h8.445l-0.262-0.386c-0.696-0.968-1.218-1.741-1.393-2.322-0.262-0.579-0.348-1.16-0.348-1.933 0-1.257 0.435-3.093 1.393-5.607l-0.696-0.87c-0.174 0.386-0.349 0.967-0.523 1.739l-0.522 1.837c-0.262 0.967-0.435 1.837-0.435 2.514s0.086 1.257 0.348 1.74c0.174 0.483 0.609 1.064 1.306 1.837 0.086 0.097 0.173 0.193 0.26 0.386h-8.27c1.567-0.87 2.786-2.126 3.744-3.674 0.957-1.546 1.828-3.866 2.698-7.057l0.087-0.29c-0.609-0.579-1.393-0.87-2.525-0.967 0.609-0.967 1.045-2.030 1.394-3.094l0.26 0.29 0.783 0.772c0.262 0.291 0.523 0.582 0.871 0.872l0.262-0.774-0.174-0.193c-0.522-0.58-1.044-0.967-1.393-1.258l-0.174-0.096 0.262-0.386c0.609 0.386 1.132 0.967 1.654 1.45l2.263-6.865-1.741-2.127h7.487v-0.29zM171.857 9.572l-2.612 7.734c0.871 0.967 1.567 1.933 2.176 2.803l0.783 1.161s0.088 0.096 0.174 0.193l0.174-0.193 0.262-0.29c0-0.097 0.087-0.097 0.174-0.193-0.783-1.36-1.678-2.534-2.702-3.58l0.003 0.003 2.089-6.187-0.522-1.45zM172.64 11.699l-1.828 5.319 0.174 0.192 0.696 0.871c0.349 0.483 0.783 1.159 1.393 2.030l0.174 0.29c0.436-0.678 1.045-1.354 1.654-1.934l-2.263-6.767zM181.608 14.889c0.26 1.064 0.871 2.611 1.828 4.544-0.262 0-0.349-0.097-0.436-0.097l-1.305-0.096c-0.369-0.062-0.795-0.098-1.229-0.098-0.027 0-0.055 0-0.082 0l0.004-0h-0.349l2.786 8.121 3.657 3.577h-9.577l-0.349-0.483h8.793l-2.959-2.901-2.961-8.605c0.349-0.096 0.783-0.193 1.306-0.193 0.609 0 1.218 0.097 2.002 0.193l-0.173-0.386c-0.697-1.45-1.219-2.707-1.394-3.866l0.436 0.289z"></path>

<symbol id="icon-tel" viewBox="0 0 32 32">
<path  d="M23.187 31.68c-1.281-0.010-2.519-0.175-3.703-0.477l0.107 0.023c-4.063-0.98-8.248-3.468-11.78-7.003s-6.022-7.72-7.003-11.78c-1.032-4.271-0.296-7.923 2.070-10.291l0.676-0.675c0.592-0.591 1.408-0.956 2.31-0.956s1.719 0.365 2.31 0.956l3.883 3.883c0.591 0.591 0.957 1.408 0.957 2.31s-0.366 1.719-0.957 2.31v0l-2.294 2.293c1.1 1.93 2.595 3.86 4.363 5.629s3.7 3.264 5.629 4.364l2.294-2.294c0.591-0.592 1.408-0.958 2.31-0.958s1.719 0.366 2.31 0.958l3.882 3.883c0.591 0.591 0.956 1.408 0.956 2.31s-0.365 1.718-0.956 2.31l-0.676 0.676c-1.668 1.672-3.978 2.529-6.691 2.529zM5.864 2.844c-0.001 0-0.003 0-0.005 0-0.259 0-0.492 0.106-0.661 0.276l-0 0-0.676 0.676c-1.773 1.773-2.29 4.65-1.458 8.098 0.881 3.653 3.149 7.448 6.387 10.684s7.031 5.503 10.685 6.387c3.448 0.832 6.324 0.314 8.097-1.458l0.676-0.676c0.17-0.171 0.276-0.406 0.276-0.666s-0.105-0.496-0.276-0.666v0l-3.882-3.882c-0.171-0.171-0.406-0.276-0.666-0.276s-0.496 0.105-0.666 0.276l-2.907 2.907c-0.21 0.211-0.501 0.341-0.823 0.341-0.195 0-0.379-0.048-0.541-0.133l0.006 0.003c-2.383-1.233-4.785-3.027-6.947-5.189s-3.953-4.563-5.188-6.947c-0.082-0.155-0.13-0.339-0.13-0.534 0-0.321 0.13-0.611 0.34-0.822v0l2.908-2.907c0.17-0.171 0.276-0.406 0.276-0.666s-0.105-0.496-0.276-0.666l-3.882-3.884c-0.169-0.17-0.404-0.275-0.662-0.275-0.002 0-0.003 0-0.005 0h0z"></path>
<path  d="M24.428 17.704c-0.642 0-1.162-0.52-1.162-1.162 0-0 0-0 0-0.001v0c-0.005-4.247-3.446-7.688-7.692-7.693h-0.001c-0.642 0-1.162-0.52-1.162-1.162s0.52-1.162 1.162-1.162v0c5.523 0 10.017 4.495 10.017 10.017 0 0 0 0 0 0.001 0 0.642-0.52 1.162-1.162 1.162v0z"></path>
<path  d="M29.341 17.704c-0.642 0-1.162-0.52-1.162-1.162 0-0 0-0 0-0.001v0c0-6.95-5.658-12.606-12.605-12.606-0.642 0-1.163-0.521-1.163-1.163s0.521-1.163 1.163-1.163v0c8.233 0 14.931 6.698 14.931 14.931 0 0 0 0 0 0.001 0 0.642-0.52 1.162-1.162 1.162-0 0-0 0-0.001 0h0z"></path>
</symbol>
<symbol id="icon-clock" viewBox="0 0 31 32">
<path  d="M15.68 31.6c-3.034 0-6-0.915-8.522-2.629-2.509-1.727-4.455-4.108-5.612-6.898l-0.038-0.103c-0.739-1.766-1.168-3.818-1.168-5.97 0-1.076 0.107-2.127 0.312-3.143l-0.017 0.101c0.625-3.139 2.112-5.861 4.201-7.99l-0.002 0.002c2.073-2.113 4.752-3.624 7.755-4.253l0.099-0.017c2.976-0.602 6.060-0.292 8.863 0.888 2.862 1.23 5.205 3.208 6.849 5.689l0.036 0.057c1.621 2.44 2.586 5.437 2.586 8.659 0 0.003 0 0.005 0 0.008v-0c0 4.138-1.617 8.105-4.493 11.031-2.877 2.925-6.779 4.569-10.847 4.569zM15.68 2.8c-2.567 0-5.076 0.774-7.212 2.225-2.123 1.461-3.77 3.475-4.749 5.837l-0.032 0.087c-0.625 1.494-0.988 3.231-0.988 5.052 0 0.911 0.091 1.801 0.264 2.661l-0.014-0.086c0.501 2.56 1.738 4.913 3.553 6.758 1.754 1.788 4.021 3.066 6.562 3.598l0.084 0.015c2.518 0.509 5.128 0.248 7.5-0.751 2.421-1.041 4.404-2.714 5.795-4.813l0.030-0.048c1.371-2.064 2.188-4.599 2.188-7.326 0-0.003 0-0.006 0-0.009v0c0-3.501-1.367-6.858-3.802-9.334s-5.736-3.866-9.178-3.866z"></path>
<path  d="M22.17 23.8c-0.002 0-0.005 0-0.007 0-0.325 0-0.619-0.133-0.83-0.348l-0-0-6.491-6.601c-0.211-0.216-0.342-0.513-0.342-0.84 0-0.004 0-0.008 0-0.012v0.001-9.6c0-0.318 0.125-0.623 0.346-0.849s0.522-0.351 0.835-0.351 0.613 0.127 0.835 0.352c0.221 0.224 0.346 0.53 0.346 0.848v9.108l6.148 6.24c0.216 0.217 0.349 0.516 0.349 0.846 0 0.002 0 0.004 0 0.006v-0c-0 0.332-0.133 0.633-0.349 0.853l0-0c-0.214 0.215-0.509 0.348-0.836 0.348-0.001 0-0.001 0-0.002 0h0z"></path>
</symbol>
<symbol id="icon-house" viewBox="0 0 32 32">
<path  d="M30 15c-0.218-0.002-0.419-0.073-0.583-0.192l0.003 0.002-13.42-9.58-13.42 9.58c-0.146 0.088-0.322 0.14-0.511 0.14-0.552 0-1-0.448-1-1 0-0.304 0.136-0.576 0.349-0.759l0.001-0.001 14-10c0.161-0.116 0.362-0.185 0.58-0.185s0.419 0.069 0.583 0.187l-0.003-0.002 14 10c0.251 0.184 0.413 0.478 0.413 0.809 0 0.55-0.443 0.996-0.992 1h-0zM5 9c-0.552 0-1-0.448-1-1v0-4c0-0.552 0.448-1 1-1v0h4c0.552 0 1 0.448 1 1s-0.448 1-1 1h-3v3c0 0 0 0 0 0.001 0 0.552-0.448 1-1 1-0 0-0 0-0.001 0h0z"></path>
<path  d="M25 29h-5c-0 0-0 0-0.001 0-0.552 0-1-0.448-1-1 0-0 0-0 0-0.001v0-7h-5.999v7c0 0 0 0 0 0.001 0 0.552-0.448 1-1 1-0 0-0 0-0.001 0h-5c-1.657-0-3-1.343-3-3v-10c0-0.552 0.448-1 1-1s1 0.448 1 1v10c0 0 0 0 0 0.001 0 0.552 0.448 1 1 1 0 0 0 0 0.001 0h4v-7c0-0 0-0 0-0.001 0-0.552 0.448-1 1-1h8c0 0 0 0 0.001 0 0.552 0 1 0.448 1 1 0 0 0 0 0 0.001v-0 7h4c0.552 0 1-0.448 1-1 0-0 0-0 0-0.001v0-10c0-0.552 0.448-1 1-1s1 0.448 1 1v0 10c0 1.657-1.343 3-3 3v0z"></path>
</symbol>
<symbol id="icon-logo" viewBox="0 0 188 32">
<path  d="M23.583 0.539l0.176 0.195c-1.491 1.558-2.631 3.213-3.596 4.965-0.876 1.752-2.015 4.576-3.331 8.275l-4.822 14.116 2.016 1.948h-7.627l2.191-2.045-6.049-19.276-2.542-2.435h8.241l-2.366 2.628 5.523 17.329 0.614-1.752-4.909-15.384 1.666-1.849 0.263 0.389-1.491 1.656 4.647 14.603 3.507-10.417c1.053-3.116 1.578-5.256 1.578-6.522s-0.438-2.338-1.227-3.213l0.35-0.097c3.156-0.584 5.523-1.656 7.189-3.116zM24.46 1.708l0.176 0.39c-2.105 1.85-4.296 6.035-6.576 12.558l-4.733 13.63 2.63 3.407h-8.592l-0.35-0.487h7.978l-2.104-2.726 4.734-13.825 0.877-2.628c0.789-2.24 1.753-4.381 2.805-6.231 1.14-1.947 2.192-3.309 3.156-4.089z"></path>
<path  d="M22.444 6.381h7.891l-2.192 2.532v19.276l2.104 1.948h-7.714l2.278-2.142v-19.276l-2.366-2.338zM31.123 7.453l-1.665 1.848v18.791l2.804 3.506h-8.678l-0.438-0.487h8.066l-2.28-2.824v-19.179l1.841-2.044 0.35 0.39zM55.057 0.539l0.176 0.195c-1.491 1.558-2.631 3.213-3.596 4.965-0.963 1.752-2.015 4.576-3.331 8.275l-4.822 14.116 2.016 1.948h-7.627l2.192-2.045-6.050-19.276-2.542-2.434h8.241l-2.366 2.628 5.523 17.329 0.614-1.752-4.909-15.384 1.666-1.849 0.264 0.389-1.491 1.656 4.646 14.603 3.507-10.417c1.053-3.116 1.579-5.256 1.579-6.522s-0.438-2.338-1.228-3.213l0.35-0.097c3.156-0.584 5.611-1.656 7.189-3.116zM56.021 1.708l0.176 0.39c-2.104 1.85-4.296 6.035-6.575 12.558l-4.734 13.63 2.63 3.407h-8.592l-0.35-0.487h7.978l-2.104-2.726 4.734-13.825 0.877-2.628c0.789-2.24 1.753-4.381 2.805-6.231 1.14-1.947 2.192-3.309 3.156-4.089zM69.347 6.381l-1.753 2.142 2.717 8.080 0.701-0.388-2.455-7.302 1.753-2.24 0.438 0.195-1.666 2.142 2.368 6.912c0.175-0.098 0.175-0.194 0.263-0.194l0.525-0.488c0.351-0.291 0.526-0.487 0.615-0.584 0.274 1.428 0.73 2.701 1.35 3.872l-0.036-0.074h-0.701c-1.053 0-1.841 0.194-2.28 0.584l2.981 9.053 2.455 2.142h-8.417l2.28-2.142-1.841-5.355c-1.228 1.363-2.191 2.629-2.805 3.895l-0.351-0.097c0.615-1.169 1.666-2.531 2.893-4.089l0.175-0.195-0.351-0.778c-1.315 1.266-2.454 2.629-3.243 4.284l-0.264-0.584c-0.614-0.973-1.315-2.141-2.192-3.505l-0.175-0.195c-0.876 2.141-1.315 3.796-1.315 5.16 0 0.779 0.088 1.46 0.35 1.947 0.263 0.584 0.789 1.461 1.753 2.727 0.088 0.098 0.175 0.292 0.351 0.487h-8.943l-0.35-0.487h8.504l-0.263-0.39c-0.701-0.973-1.228-1.752-1.403-2.337-0.264-0.584-0.351-1.168-0.351-1.947 0-1.266 0.438-3.116 1.403-5.646l-0.701-0.876c-0.175 0.389-0.35 0.973-0.526 1.752l-0.525 1.85c-0.264 0.973-0.438 1.85-0.438 2.531s0.088 1.266 0.35 1.752c0.175 0.488 0.614 1.072 1.315 1.851 0.088 0.098 0.175 0.194 0.263 0.389h-8.328c1.577-0.876 2.804-2.142 3.769-3.699s1.841-3.894 2.717-7.107l0.088-0.291c-0.615-0.584-1.403-0.876-2.543-0.973 0.615-0.973 1.053-2.045 1.403-3.116l0.263 0.292 0.789 0.778c0.264 0.292 0.526 0.584 0.877 0.877l0.264-0.778-0.175-0.195c-0.526-0.584-1.053-0.973-1.403-1.266l-0.175-0.098 0.263-0.389c0.614 0.39 1.139 0.973 1.666 1.46l2.28-6.913-1.753-2.141h7.539v-0.292zM64.525 10.179l-2.63 7.788c0.876 0.973 1.578 1.947 2.192 2.823l0.788 1.169 0.176 0.195 0.438-0.487c0-0.097 0.088-0.098 0.175-0.195-0.789-1.363-1.666-2.531-2.717-3.603l2.104-6.23-0.526-1.461zM65.315 12.321l-1.841 5.355 0.175 0.194 0.701 0.876c0.35 0.488 0.789 1.169 1.403 2.045l0.175 0.293c0.438-0.682 1.053-1.363 1.666-1.947l-2.28-6.816zM74.344 15.533c0.263 1.071 0.877 2.629 1.841 4.576-0.263 0-0.35-0.098-0.438-0.098l-1.315-0.098c-0.372-0.062-0.8-0.098-1.236-0.098-0.028 0-0.056 0-0.083 0l0.004-0h-0.35l2.806 8.179 3.682 3.603h-9.644l-0.35-0.487h8.854l-2.981-2.921-2.981-8.665c0.393-0.119 0.845-0.19 1.313-0.194h0.002c0.614 0 1.228 0.097 2.017 0.194l-0.176-0.388c-0.701-1.46-1.227-2.726-1.403-3.895l0.438 0.292zM89.248 6.381h7.452c3.156 0 5.436 0.487 6.751 1.46 1.666 1.266 2.542 2.921 2.542 5.063 0 1.363-0.351 2.434-0.964 3.408s-1.578 1.655-2.717 2.141c-1.14 0.39-3.069 0.682-5.612 0.682h-2.016v8.956l2.016 2.045h-7.715l2.28-2.141v-7.399h-0.264c-0.789 0-1.577 0.194-2.279 0.584l-0.175-0.291c0.701-0.487 1.402-0.682 2.016-0.682h0.789v-0.876c-0.263 0-0.438-0.098-0.526-0.098-1.227 0-2.104 0.292-2.805 0.973l-0.175-0.292c0.701-1.363 1.753-2.045 3.244-2.045h0.263v-9.054l-2.104-2.434zM105.204 8.427c0.701 0.389 1.228 0.973 1.666 1.947s0.614 1.947 0.614 3.213c0 2.628-0.964 4.575-2.806 5.743-1.402 0.876-3.857 1.364-7.188 1.364h-1.403v7.592l2.63 3.408h-8.328l-0.439-0.487h7.803l-2.104-2.726v-8.372c0.965 0.098 2.017 0.097 3.069 0.097 2.893 0 4.997-0.584 6.4-1.656s2.104-2.823 2.104-5.16c0-0.973-0.175-1.752-0.438-2.531-0.439-0.779-0.877-1.558-1.578-2.434zM94.684 8.328v9.249h0.789v-8.275h1.841c1.403 0 2.455 0.099 2.981 0.39 0.614 0.292 1.052 0.876 1.491 1.752-0.439-0.584-0.964-1.071-1.578-1.363s-1.491-0.389-2.63-0.389h-1.754v7.789c2.192 0 3.77-0.391 4.822-1.072s1.579-1.85 1.579-3.407c0-1.753-0.439-2.921-1.403-3.699-0.877-0.779-2.367-1.169-4.384-1.169-0.438 0.098-1.052 0.098-1.753 0.195zM108.448 6.381h7.891l-2.192 2.532v19.276l2.104 1.948h-7.715l2.28-2.142v-19.276l-2.367-2.338zM117.040 7.453l-1.666 1.848v18.791l2.805 3.506h-8.68l-0.438-0.487h8.066l-2.28-2.824v-19.179l1.841-2.044 0.351 0.39zM137.028 6.381l-13.325 22.1h1.052l13.064-21.709 0.263 0.486-12.8 21.32h3.683c0.877 0 1.753-0.194 2.63-0.584 0.789-0.389 1.403-0.876 1.841-1.46 0.526-0.779 0.964-1.655 1.315-2.531 0.964 2.726 1.928 4.771 2.98 6.231h-18.936l12.361-20.542h-2.455c-2.017 0-3.419 0.195-4.208 0.779-0.789 0.487-1.315 1.46-1.666 3.017l-0.35-0.388c0.175-1.071 0.701-1.948 1.402-2.629 0.439-0.487 1.053-0.779 1.666-0.973s1.666-0.195 3.156-0.195c0.877 0 1.754 0.001 2.542 0.099h0.264l0.614-1.072c-0.789-0.097-1.578-0.097-2.28-0.097-2.28 0-3.858 0.098-4.734 0.292s-1.578 0.682-2.28 1.46c-0.526 0.584-0.877 1.363-1.227 2.337l-0.176-0.293c-0.526-1.46-1.315-3.115-2.367-5.16l-0.088-0.195h18.060v-0.292zM139.395 29.942l-0.877 1.656h-19.024l-0.351-0.487h19.112l0.614-1.169c-1.315-1.752-2.28-3.699-2.981-5.841l0.526 0.194c0.525 1.85 1.49 3.7 2.805 5.453l0.175 0.195zM158.858 6.381l-13.326 22.1h1.053l13.063-21.709 0.263 0.486-12.8 21.32h3.683c0.877 0 1.753-0.194 2.63-0.584s1.403-0.876 1.842-1.46c0.525-0.779 0.964-1.655 1.315-2.531 0.964 2.726 1.928 4.771 2.981 6.231h-18.937l12.362-20.542h-2.455c-2.017 0-3.42 0.195-4.209 0.779s-1.315 1.46-1.666 3.017l-0.35-0.388c0.175-1.071 0.701-1.948 1.403-2.629 0.438-0.487 1.052-0.779 1.666-0.973s1.666-0.195 3.156-0.195c0.877 0 1.753 0.001 2.542 0.099h0.263l0.614-1.072c-0.789-0.097-1.578-0.097-2.28-0.097-2.28 0-3.858 0.098-4.734 0.292s-1.578 0.682-2.28 1.46c-0.525 0.584-0.877 1.363-1.227 2.337l-0.175-0.293c-0.526-1.46-1.315-3.115-2.367-5.16l-0.088-0.195h18.060v-0.292zM161.225 29.942l-0.877 1.656h-19.025l-0.35-0.487h19.112l0.613-1.169c-1.315-1.752-2.28-3.699-2.981-5.841l0.526 0.194c0.526 1.85 1.491 3.7 2.806 5.453l0.175 0.195zM177.882 6.381l-1.753 2.142 2.718 8.080 0.701-0.388-2.455-7.302 1.754-2.24 0.438 0.195-1.666 2.142 2.367 6.912c0.175-0.098 0.175-0.194 0.263-0.194l0.526-0.488c0.351-0.291 0.526-0.487 0.614-0.584 0.274 1.428 0.73 2.701 1.35 3.872l-0.036-0.074h-0.701c-1.053 0-1.842 0.194-2.28 0.584l2.98 9.053 2.456 2.142h-8.417l2.28-2.142-1.841-5.355c-1.228 1.363-2.192 2.629-2.806 3.895l-0.35-0.097c0.613-1.169 1.665-2.531 2.893-4.089l0.175-0.195-0.35-0.778c-1.315 1.266-2.455 2.629-3.244 4.284l-0.263-0.584c-0.614-0.973-1.315-2.141-2.192-3.505l-0.175-0.195c-0.877 2.141-1.315 3.796-1.315 5.16 0 0.779 0.088 1.46 0.35 1.947 0.264 0.584 0.789 1.461 1.754 2.727 0.088 0.098 0.175 0.292 0.35 0.487h-8.942l-0.35-0.487h8.504l-0.263-0.39c-0.701-0.973-1.228-1.752-1.403-2.337-0.263-0.584-0.35-1.168-0.35-1.947 0-1.266 0.438-3.116 1.403-5.646l-0.702-0.876c-0.175 0.389-0.35 0.973-0.525 1.752l-0.526 1.85c-0.263 0.973-0.438 1.85-0.438 2.531s0.088 1.266 0.35 1.752c0.175 0.488 0.614 1.072 1.315 1.851 0.088 0.098 0.175 0.194 0.263 0.389h-8.328c1.578-0.876 2.805-2.142 3.77-3.699s1.841-3.894 2.717-7.107l0.088-0.291c-0.614-0.584-1.403-0.876-2.542-0.973 0.613-0.973 1.052-2.045 1.403-3.116l0.263 0.292 0.789 0.778c0.263 0.292 0.526 0.584 0.877 0.877l0.263-0.778-0.175-0.195c-0.526-0.584-1.052-0.973-1.403-1.266l-0.175-0.098 0.263-0.389c0.614 0.39 1.14 0.973 1.667 1.46l2.279-6.913-1.753-2.141h7.539v-0.292zM173.060 10.179l-2.63 7.788c0.877 0.973 1.578 1.947 2.192 2.823l0.789 1.169 0.175 0.195 0.176-0.195 0.263-0.292c0-0.097 0.088-0.098 0.175-0.195-0.789-1.363-1.666-2.531-2.717-3.603l2.104-6.23-0.526-1.461zM173.849 12.321l-1.841 5.355 0.175 0.194 0.701 0.876c0.351 0.488 0.789 1.169 1.403 2.045l0.175 0.293c0.439-0.682 1.052-1.363 1.666-1.947l-2.28-6.815zM182.88 15.533c0.263 1.071 0.877 2.629 1.841 4.576-0.263 0-0.35-0.098-0.438-0.098l-1.315-0.098c-0.372-0.062-0.8-0.098-1.236-0.098-0.028 0-0.056 0-0.083 0l0.004-0h-0.351l2.806 8.179 3.683 3.603h-9.644l-0.351-0.487h8.855l-2.98-2.921-2.981-8.665c0.393-0.119 0.845-0.19 1.313-0.194h0.002c0.613 0 1.227 0.097 2.016 0.194l-0.175-0.388c-0.701-1.46-1.228-2.726-1.403-3.895l0.439 0.292z"></path>
</symbol>
<symbol id="icon-basket" viewBox="0 0 31 32">
<path stroke="#fff" stroke-linejoin="miter" stroke-linecap="butt" stroke-miterlimit="4" stroke-width="0.9143" d="M23.564 31.11h-16.167c-1.524-0.001-2.759-1.236-2.76-2.759v-0l-2.288-10.749c-0.852-0.423-1.428-1.284-1.434-2.281v-0.001c0.002-1.429 1.159-2.587 2.588-2.588h23.644c1.426 0 2.587 1.16 2.587 2.587 0 0.837-0.402 1.601-1.077 2.083l-2.352 11.125c0.018 1.346-1.22 2.584-2.741 2.584zM3.502 14.427c-0.491 0.001-0.889 0.399-0.89 0.89v0c0 0.388 0.28 0.73 0.681 0.832 0.312 0.082 0.55 0.33 0.617 0.642l0.001 0.006 2.405 11.379c0.019 0.76 0.496 1.234 1.082 1.234h16.166c0.585 0 1.062-0.474 1.062-1.061l2.446-11.659c0.055-0.26 0.224-0.472 0.45-0.586l0.005-0.002c0.299-0.141 0.504-0.438 0.509-0.784v-0.001c-0.001-0.492-0.399-0.89-0.89-0.891h-23.644z"></path>
<path stroke="#fff" stroke-linejoin="miter" stroke-linecap="butt" stroke-miterlimit="4" stroke-width="0.9143" d="M9.577 26.133c0 0.329-0.269 0.597-0.597 0.597h-0.165c-0.329-0.001-0.596-0.268-0.597-0.597v-6.991c0-0.328 0.269-0.597 0.597-0.597h0.165c0.329 0 0.597 0.269 0.597 0.597v6.991zM13.949 26.133c0 0.329-0.269 0.597-0.597 0.597h-0.165c-0.329-0.001-0.596-0.268-0.597-0.597v-6.991c0-0.328 0.268-0.597 0.597-0.597h0.165c0.329 0 0.597 0.269 0.597 0.597v6.991zM18.322 26.133c0 0.329-0.269 0.597-0.597 0.597h-0.165c-0.329-0.001-0.596-0.268-0.597-0.597v-6.991c0-0.328 0.269-0.597 0.597-0.597h0.165c0.329 0 0.597 0.269 0.597 0.597v6.991zM22.695 26.133c0 0.329-0.269 0.597-0.597 0.597h-0.165c-0.33-0.001-0.597-0.267-0.598-0.597v-6.991c0-0.328 0.27-0.597 0.598-0.597h0.165c0.329 0 0.597 0.269 0.597 0.597v6.991zM7.286 9.697c0.567-3.947 3.952-6.983 8.055-6.983s7.489 3.037 8.056 6.983c0.082 1.348 1.819 1.132 1.819 0-0.58-4.943-4.776-8.783-9.874-8.783-5.1 0-9.296 3.839-9.874 8.783 0 1.402 1.84 1.456 1.819 0z"></path>
</symbol>
<symbol id="icon-logo2" viewBox="0 0 186 32">
<path d="M23.42 0l0.173 0.193c-1.479 1.547-2.611 3.19-3.569 4.93-0.872 1.74-2.003 4.544-3.308 8.218l-4.789 14.018 2.003 1.933h-7.575l2.177-2.030-6.007-19.142-2.525-2.417h8.183l-2.35 2.61 5.484 17.209 0.61-1.74-4.875-15.276 1.654-1.836 0.26 0.386-1.479 1.644 4.612 14.502 3.484-10.345c1.045-3.094 1.567-5.219 1.567-6.477 0-0.017 0-0.038 0-0.058 0-1.21-0.464-2.311-1.223-3.136l0.003 0.003 0.349-0.096c3.134-0.58 5.484-1.644 7.139-3.094zM24.289 1.161l0.175 0.386c-2.090 1.837-4.266 5.994-6.53 12.471l-4.701 13.535 2.612 3.384h-8.533l-0.348-0.483h7.923l-2.090-2.707 4.701-13.729 0.872-2.611c0.783-2.223 1.74-4.35 2.785-6.186 1.132-1.934 2.177-3.288 3.134-4.061z"></path>
<path d="M22.287 5.801h7.837l-2.176 2.515v19.142l2.089 1.934h-7.661l2.263-2.127v-19.143l-2.35-2.321zM30.906 6.866l-1.654 1.836v18.659l2.786 3.48h-8.619l-0.436-0.483h8.011l-2.264-2.804v-19.047l1.828-2.030 0.348 0.386zM54.674 0l0.174 0.193c-1.48 1.547-2.612 3.19-3.57 4.93s-2.002 4.544-3.308 8.218l-4.789 14.018 2.003 1.933h-7.574l2.177-2.030-6.007-19.142-2.525-2.417h8.183l-2.35 2.61 5.484 17.209 0.61-1.74-4.876-15.276 1.655-1.836 0.26 0.386-1.48 1.644 4.614 14.502 3.482-10.345c1.045-3.094 1.567-5.219 1.567-6.477 0-0.018 0-0.039 0-0.060 0-1.209-0.463-2.31-1.222-3.135l0.003 0.003 0.349-0.096c3.134-0.58 5.572-1.644 7.139-3.094zM55.631 1.161l0.174 0.386c-2.089 1.837-4.266 5.994-6.529 12.471l-4.701 13.535 2.611 3.384h-8.532l-0.349-0.483h7.923l-2.089-2.707 4.701-13.729 0.872-2.611c0.783-2.223 1.74-4.35 2.785-6.186 1.132-1.934 2.176-3.288 3.134-4.061zM68.865 5.801l-1.742 2.127 2.698 8.024 0.697-0.386-2.439-7.251 1.741-2.225 0.436 0.193-1.655 2.127 2.351 6.863c0.174-0.096 0.174-0.192 0.262-0.192l0.522-0.483c0.349-0.29 0.523-0.484 0.609-0.58 0.272 1.418 0.725 2.681 1.342 3.844l-0.036-0.074h-0.696c-1.045 0-1.828 0.193-2.264 0.579l2.961 8.991 2.438 2.127h-8.358l2.263-2.127-1.828-5.318c-1.218 1.354-2.176 2.611-2.785 3.868l-0.349-0.096c0.609-1.161 1.655-2.514 2.873-4.061l0.174-0.194-0.349-0.772c-1.306 1.257-2.439 2.611-3.222 4.254l-0.26-0.58c-0.609-0.967-1.306-2.126-2.177-3.48l-0.173-0.193c-0.872 2.126-1.306 3.769-1.306 5.123 0 0.774 0.088 1.45 0.349 1.933 0.26 0.58 0.783 1.451 1.741 2.708 0.087 0.097 0.173 0.29 0.348 0.483h-8.879l-0.349-0.483h8.445l-0.26-0.386c-0.697-0.968-1.219-1.741-1.394-2.322-0.26-0.579-0.348-1.16-0.348-1.933 0-1.257 0.435-3.093 1.393-5.607l-0.696-0.87c-0.174 0.386-0.349 0.967-0.523 1.739l-0.522 1.837c-0.262 0.967-0.436 1.837-0.436 2.514s0.088 1.257 0.349 1.74c0.174 0.483 0.609 1.064 1.306 1.837 0.087 0.097 0.173 0.193 0.26 0.386h-8.27c1.567-0.87 2.786-2.126 3.743-3.674 0.958-1.546 1.828-3.866 2.699-7.057l0.088-0.29c-0.61-0.579-1.394-0.87-2.526-0.967 0.61-0.967 1.045-2.030 1.394-3.094l0.26 0.29 0.783 0.772c0.262 0.291 0.523 0.582 0.872 0.872l0.26-0.774-0.174-0.193c-0.522-0.58-1.045-0.967-1.393-1.258l-0.174-0.096 0.262-0.386c0.609 0.386 1.131 0.967 1.654 1.45l2.263-6.865-1.74-2.127h7.488v-0.29zM64.076 9.572l-2.612 7.734c0.872 0.967 1.567 1.933 2.177 2.803l0.783 1.161 0.174 0.193 0.173-0.193 0.262-0.29c0-0.097 0.087-0.097 0.174-0.193-0.783-1.36-1.678-2.534-2.702-3.58l0.003 0.003 2.090-6.187-0.523-1.45zM64.86 11.699l-1.828 5.319 0.174 0.192 0.696 0.871c0.349 0.483 0.783 1.159 1.394 2.030l0.174 0.29c0.435-0.678 1.044-1.354 1.654-1.934l-2.264-6.767zM73.827 14.889c0.26 1.064 0.871 2.611 1.827 4.544-0.26 0-0.348-0.097-0.435-0.097l-1.306-0.096c-0.369-0.062-0.794-0.098-1.228-0.098-0.027 0-0.054 0-0.082 0l0.004-0h-0.349l2.786 8.121 3.657 3.577h-9.577l-0.348-0.483h8.792l-2.959-2.901-2.961-8.605c0.349-0.096 0.783-0.193 1.306-0.193 0.609 0 1.218 0.097 2.002 0.193l-0.173-0.386c-0.697-1.45-1.219-2.707-1.394-3.866l0.436 0.289zM88.627 5.801h7.401c3.134 0 5.397 0.483 6.703 1.451 1.654 1.257 2.525 2.9 2.525 5.027 0 1.353-0.349 2.417-0.958 3.383s-1.567 1.644-2.699 2.127c-1.131 0.386-3.047 0.676-5.572 0.676h-2.002v8.894l2.003 2.030h-7.661l2.263-2.126v-7.347h-0.262c-0.783 0-1.567 0.192-2.262 0.579l-0.175-0.29c0.696-0.483 1.393-0.676 2.003-0.676h0.783v-0.872c-0.262 0-0.436-0.095-0.522-0.095-1.219 0-2.090 0.289-2.786 0.967l-0.174-0.29c0.696-1.354 1.741-2.030 3.222-2.030h0.26v-8.991l-2.090-2.417zM104.472 7.831c0.696 0.387 1.218 0.968 1.654 1.934 0.435 0.967 0.609 1.933 0.609 3.19 0 2.611-0.958 4.544-2.786 5.704-1.393 0.87-3.829 1.354-7.138 1.354h-1.394v7.541l2.613 3.383h-8.271l-0.435-0.483h7.748l-2.090-2.707v-8.314c0.958 0.097 2.003 0.097 3.047 0.097 2.873 0 4.963-0.58 6.356-1.644s2.089-2.803 2.089-5.123c0-0.967-0.173-1.74-0.435-2.514-0.436-0.772-0.871-1.547-1.567-2.417zM94.025 7.735v9.184h0.783v-8.217h1.828c1.393 0 2.439 0.097 2.961 0.386 0.609 0.29 1.044 0.871 1.479 1.74-0.435-0.579-0.957-1.064-1.567-1.353-0.609-0.29-1.479-0.386-2.612-0.386h-1.74v7.734c2.176 0 3.743-0.387 4.788-1.065 1.045-0.676 1.567-1.836 1.567-3.383 0-1.74-0.435-2.9-1.393-3.674-0.871-0.772-2.35-1.159-4.353-1.159-0.435 0.096-1.045 0.096-1.741 0.193zM107.693 5.801h7.836l-2.176 2.515v19.142l2.089 1.934h-7.661l2.263-2.127v-19.143l-2.35-2.321zM116.225 6.866l-1.654 1.836v18.659l2.786 3.48h-8.619l-0.436-0.483h8.010l-2.263-2.804v-19.047l1.828-2.030 0.348 0.386zM136.075 5.801l-13.233 21.948h1.044l12.972-21.56 0.262 0.483-12.711 21.172h3.656c0.871 0 1.741-0.193 2.612-0.579 0.785-0.386 1.394-0.87 1.828-1.45 0.523-0.774 0.958-1.644 1.306-2.514 0.958 2.707 1.916 4.737 2.959 6.187h-18.805l12.276-20.398h-2.438c-2.003 0-3.395 0.193-4.179 0.772-0.783 0.483-1.306 1.45-1.654 2.997l-0.349-0.386c0.174-1.064 0.696-1.933 1.393-2.611 0.436-0.483 1.045-0.772 1.655-0.967 0.609-0.193 1.653-0.193 3.134-0.193 0.871 0 1.741 0 2.525 0.097h0.26l0.61-1.064c-0.783-0.097-1.567-0.097-2.264-0.097-2.263 0-3.83 0.097-4.701 0.29s-1.567 0.676-2.263 1.45c-0.523 0.58-0.871 1.354-1.219 2.321l-0.174-0.29c-0.522-1.45-1.305-3.094-2.35-5.124l-0.087-0.193h17.934v-0.29zM138.425 29.197l-0.871 1.644h-18.892l-0.348-0.483h18.979l0.609-1.161c-1.306-1.74-2.263-3.674-2.961-5.801l0.523 0.194c0.522 1.837 1.48 3.673 2.785 5.414l0.174 0.193zM157.752 5.801l-13.233 21.948h1.045l12.971-21.56 0.262 0.483-12.711 21.172h3.657c0.871 0 1.74-0.193 2.611-0.579 0.746-0.32 1.363-0.816 1.82-1.438l0.008-0.012c0.523-0.774 0.958-1.644 1.306-2.514 0.958 2.707 1.916 4.737 2.959 6.187h-18.805l12.276-20.398h-2.438c-2.003 0-3.395 0.193-4.179 0.772-0.783 0.58-1.306 1.45-1.654 2.997l-0.349-0.386c0.174-1.064 0.696-1.933 1.394-2.611 0.435-0.483 1.044-0.772 1.654-0.967 0.609-0.193 1.654-0.193 3.134-0.193 0.871 0 1.741 0 2.525 0.097h0.26l0.61-1.064c-0.783-0.097-1.567-0.097-2.263-0.097-2.264 0-3.831 0.097-4.702 0.29s-1.567 0.676-2.263 1.45c-0.523 0.58-0.871 1.354-1.219 2.321l-0.174-0.29c-0.522-1.45-1.305-3.094-2.35-5.124l-0.087-0.193h17.934v-0.29zM160.103 29.197l-0.871 1.644h-18.891l-0.349-0.483h18.979l0.609-1.161c-1.306-1.74-2.263-3.674-2.961-5.801l0.523 0.194c0.522 1.837 1.48 3.673 2.786 5.414l0.173 0.193zM176.644 5.801l-1.741 2.127 2.699 8.024 0.696-0.386-2.438-7.251 1.741-2.225 0.436 0.193-1.654 2.127 2.35 6.863c0.174-0.096 0.174-0.192 0.262-0.192l0.522-0.483c0.349-0.29 0.522-0.484 0.609-0.58 0.272 1.418 0.725 2.681 1.342 3.844l-0.036-0.074h-0.696c-1.045 0-1.828 0.193-2.264 0.579l2.961 8.991 2.438 2.127h-8.358l2.263-2.127-1.828-5.318c-1.218 1.354-2.176 2.611-2.786 3.868l-0.348-0.096c0.609-1.161 1.654-2.514 2.872-4.061l0.174-0.194-0.348-0.772c-1.306 1.257-2.438 2.611-3.222 4.254l-0.26-0.58c-0.609-0.967-1.306-2.126-2.177-3.48l-0.173-0.193c-0.871 2.126-1.306 3.769-1.306 5.123 0 0.774 0.087 1.45 0.349 1.933 0.26 0.58 0.783 1.451 1.741 2.708 0.086 0.097 0.174 0.29 0.348 0.483h-8.879l-0.349-0.483h8.445l-0.262-0.386c-0.696-0.968-1.218-1.741-1.393-2.322-0.262-0.579-0.348-1.16-0.348-1.933 0-1.257 0.435-3.093 1.393-5.607l-0.696-0.87c-0.174 0.386-0.349 0.967-0.523 1.739l-0.522 1.837c-0.262 0.967-0.435 1.837-0.435 2.514s0.086 1.257 0.348 1.74c0.174 0.483 0.609 1.064 1.306 1.837 0.086 0.097 0.173 0.193 0.26 0.386h-8.27c1.567-0.87 2.786-2.126 3.744-3.674 0.957-1.546 1.828-3.866 2.698-7.057l0.087-0.29c-0.609-0.579-1.393-0.87-2.525-0.967 0.609-0.967 1.045-2.030 1.394-3.094l0.26 0.29 0.783 0.772c0.262 0.291 0.523 0.582 0.871 0.872l0.262-0.774-0.174-0.193c-0.522-0.58-1.044-0.967-1.393-1.258l-0.174-0.096 0.262-0.386c0.609 0.386 1.132 0.967 1.654 1.45l2.263-6.865-1.741-2.127h7.487v-0.29zM171.857 9.572l-2.612 7.734c0.871 0.967 1.567 1.933 2.176 2.803l0.783 1.161s0.088 0.096 0.174 0.193l0.174-0.193 0.262-0.29c0-0.097 0.087-0.097 0.174-0.193-0.783-1.36-1.678-2.534-2.702-3.58l0.003 0.003 2.089-6.187-0.522-1.45zM172.64 11.699l-1.828 5.319 0.174 0.192 0.696 0.871c0.349 0.483 0.783 1.159 1.393 2.030l0.174 0.29c0.436-0.678 1.045-1.354 1.654-1.934l-2.263-6.767zM181.608 14.889c0.26 1.064 0.871 2.611 1.828 4.544-0.262 0-0.349-0.097-0.436-0.097l-1.305-0.096c-0.369-0.062-0.795-0.098-1.229-0.098-0.027 0-0.055 0-0.082 0l0.004-0h-0.349l2.786 8.121 3.657 3.577h-9.577l-0.349-0.483h8.793l-2.959-2.901-2.961-8.605c0.349-0.096 0.783-0.193 1.306-0.193 0.609 0 1.218 0.097 2.002 0.193l-0.173-0.386c-0.697-1.45-1.219-2.707-1.394-3.866l0.436 0.289z"></path>

</symbol>
</defs>
</svg>
