<svg aria-hidden="true" style="position: absolute; width: 0; height: 0; overflow: hidden;" version="1.1" xmlns="http://www.w3.org/2000/svg" xmlns:xlink="http://www.w3.org/1999/xlink">
<defs>
<symbol id="icon-basket_1" viewBox="0 0 29 32">
<path 
 stroke="#fff" stroke-linejoin="miter" stroke-linecap="butt" stroke-miterlimit="4" stroke-width="0.8" d="M20.618 27.222h-14.146c-1.333-0.001-2.414-1.081-2.415-2.414v-0l-2.002-9.406c-0.745-0.37-1.25-1.124-1.254-1.996v-0.001c0.001-1.25 1.015-2.263 2.265-2.265h20.688c1.248 0 2.264 1.015 2.264 2.264 0 0.732-0.352 1.401-0.942 1.822l-2.058 9.734c0.016 1.178-1.067 2.261-2.398 2.261zM3.064 12.624c-0.43 0.001-0.778 0.349-0.779 0.779v0c0 0.339 0.245 0.638 0.596 0.728 0.273 0.072 0.482 0.289 0.54 0.562l0.001 0.005 2.104 9.957c0.017 0.665 0.434 1.080 0.946 1.080h14.146c0.512 0 0.93-0.415 0.93-0.928l2.14-10.202c0.048-0.227 0.196-0.413 0.394-0.512l0.004-0.002c0.262-0.123 0.441-0.383 0.446-0.686v-0.001c-0-0.43-0.349-0.779-0.779-0.78h-20.688z"></path>
<path 
 stroke="#fff" stroke-linejoin="miter" stroke-linecap="butt" stroke-miterlimit="4" stroke-width="0.8" d="M8.38 22.866c0 0.288-0.235 0.522-0.522 0.522h-0.144c-0.288-0.001-0.521-0.234-0.522-0.522v-6.117c0-0.287 0.235-0.522 0.522-0.522h0.144c0.288 0 0.522 0.235 0.522 0.522v6.117zM12.206 22.866c0 0.288-0.235 0.522-0.522 0.522h-0.144c-0.288-0.001-0.521-0.234-0.522-0.522v-6.117c0-0.287 0.234-0.522 0.522-0.522h0.144c0.288 0 0.522 0.235 0.522 0.522v6.117zM16.032 22.866c0 0.288-0.235 0.522-0.522 0.522h-0.144c-0.288-0.001-0.521-0.234-0.522-0.522v-6.117c0-0.287 0.235-0.522 0.522-0.522h0.144c0.288 0 0.522 0.235 0.522 0.522v6.117zM19.858 22.866c0 0.288-0.235 0.522-0.522 0.522h-0.144c-0.288-0-0.522-0.234-0.523-0.522v-6.117c0-0.287 0.236-0.522 0.523-0.522h0.144c0.288 0 0.522 0.235 0.522 0.522v6.117zM6.375 8.485c0.496-3.454 3.458-6.11 7.048-6.11s6.553 2.658 7.049 6.11c0.072 1.179 1.592 0.99 1.592 0-0.507-4.325-4.179-7.685-8.64-7.685-4.462 0-8.134 3.359-8.64 7.685 0 1.226 1.61 1.274 1.591 0z"></path>
<path fill="#ef1e23" style="fill: var(--color2, #ef1e23)" d="M28.8 25.2c0 3.756-3.044 6.8-6.8 6.8s-6.8-3.044-6.8-6.8c0-3.756 3.044-6.8 6.8-6.8s6.8 3.044 6.8 6.8z"></path>
<path fill="#fff" style="fill: var(--color1, #fff)" d="M21.139 28.848c-0.403 0-0.739-0.131-1.008-0.394s-0.403-0.595-0.403-0.998v-4.032c0-0.403 0.134-0.736 0.403-0.998s0.605-0.394 1.008-0.394h1.315c0.403 0 0.739 0.131 1.008 0.394s0.403 0.595 0.403 0.998v4.032c0 0.403-0.134 0.736-0.403 0.998s-0.605 0.394-1.008 0.394h-1.315zM22.31 27.504c0.122 0 0.182-0.061 0.182-0.182v-3.763c0-0.122-0.061-0.182-0.182-0.182h-1.027c-0.002-0-0.004-0-0.007-0-0.046 0-0.088 0.018-0.118 0.048l0-0c-0.030 0.032-0.048 0.076-0.048 0.123 0 0.004 0 0.008 0 0.012l-0-0.001v3.763c0 0.058 0.016 0.102 0.048 0.134s0.074 0.048 0.125 0.048h1.027z"></path>
</symbol>
</defs>
</svg>
